<svg width="22" height="22" viewBox="0 0 22 22" fill="none" xmlns="http://www.w3.org/2000/svg">
<path fill-rule="evenodd" clip-rule="evenodd" d="M12.8484 17.657C12.8484 17.6942 12.8314 17.7314 12.7972 17.7686C12.7665 17.8058 12.7256 17.8058 12.6812 17.8058C11.4967 17.8058 4.34531 17.8058 3.16081 17.8058C3.06864 17.8058 2.99353 17.7314 2.99353 17.657C2.99353 16.1322 2.99353 5.86777 2.99353 4.34298C2.99353 4.30579 3.01061 4.2686 3.04133 4.23141C3.07205 4.19422 3.11643 4.19422 3.1608 4.19422C4.34531 4.19422 11.4967 4.19422 12.6812 4.19422C12.7734 4.19422 12.8484 4.2686 12.8484 4.34298C12.8484 4.86364 12.8484 6.20248 12.8484 6.64876C12.8484 6.72314 12.903 6.76033 12.9679 6.76033C13.3229 6.76033 14.3641 6.76033 14.7191 6.76033C14.7839 6.76033 14.8385 6.72314 14.8385 6.64876L14.8385 3.30165C14.8385 2.96694 14.7157 2.63223 14.4938 2.3719C14.2753 2.14876 13.9749 2 13.6643 2C12.2988 2 3.54309 2 2.17768 2C1.86363 2 1.56664 2.14876 1.34476 2.3719C1.12629 2.63223 1 2.96694 1 3.30166C1 4.97521 1 17.0248 1 18.6984C1 19.0331 1.12629 19.3678 1.34476 19.6281C1.56664 19.8512 1.86363 20 2.17768 20C3.5431 20 12.2989 20 13.6643 20C13.9749 20 14.2753 19.8512 14.4938 19.6281C14.7157 19.3678 14.8385 19.0331 14.8385 18.6983C14.8385 18.6983 14.8385 15.9835 14.8385 15.3512C14.8385 15.3141 14.8249 15.2769 14.8044 15.2769C14.7805 15.2397 14.7498 15.2397 14.7191 15.2397C14.3641 15.2397 13.3229 15.2397 12.9679 15.2397C12.9372 15.2397 12.9064 15.2397 12.8826 15.2769C12.8621 15.2769 12.8484 15.3141 12.8484 15.3512C12.8484 15.7975 12.8484 17.1364 12.8484 17.657ZM21 11C21 11.0372 20.9863 11.0744 20.9659 11.1116C20.3992 11.7066 17.211 15.2025 17.211 15.2025C16.8218 15.6116 16.1903 15.6116 15.8011 15.2025C15.4564 14.7934 15.4189 14.2355 15.6851 13.7893L15.7022 13.7893L15.7056 13.7521C15.7363 13.7149 15.767 13.6777 15.8011 13.6405L17.0949 12.2273C17.1188 12.2273 17.1256 12.1901 17.112 12.1529C17.0983 12.1157 17.0676 12.0785 17.0335 12.0785C15.948 12.0785 11.0939 12.0785 11.0939 12.0785C10.5443 12.0785 10.0971 11.595 10.0971 11C10.0971 10.405 10.5409 9.92149 11.0904 9.92149C11.0904 9.92149 15.9377 9.92149 17.0198 9.92149C17.054 9.92149 17.0881 9.8843 17.1018 9.84711C17.1154 9.80992 17.1051 9.77273 17.0812 9.73554L15.8011 8.3595C15.767 8.32231 15.7363 8.28512 15.7056 8.24793L15.6885 8.21074L15.6851 8.21074C15.4189 7.76446 15.4564 7.20661 15.8011 6.83471C16.1903 6.38843 16.8218 6.38843 17.211 6.83471C17.211 6.83471 20.3992 10.2934 20.9659 10.9256C20.9863 10.9256 21 10.9628 21 11Z" fill="#72777D"/>
</svg>