<svg width="13" height="13" viewBox="0 0 13 13" fill="none" xmlns="http://www.w3.org/2000/svg">
<path d="M6.61785 4.63203V6.40642V4.63203ZM6.61785 6.40642V8.18081V6.40642ZM6.61785 6.40642H8.39224H6.61785ZM6.61785 6.40642H4.84346H6.61785ZM11.941 6.40642C11.941 7.10547 11.8033 7.79766 11.5358 8.44354C11.2683 9.08936 10.8762 9.67615 10.3819 10.1705C9.88758 10.6648 9.30079 11.0569 8.65497 11.3244C8.00909 11.5919 7.3169 11.7296 6.61785 11.7296C5.9188 11.7296 5.2266 11.5919 4.58076 11.3244C3.93492 11.0569 3.3481 10.6648 2.8538 10.1705C2.3595 9.67615 1.9674 9.08936 1.69988 8.44354C1.43236 7.79766 1.29468 7.10547 1.29468 6.40642C1.29468 4.99463 1.85551 3.64066 2.8538 2.64237C3.85209 1.64408 5.20605 1.08325 6.61785 1.08325C8.02961 1.08325 9.38359 1.64408 10.3819 2.64237C11.3802 3.64066 11.941 4.99463 11.941 6.40642Z" stroke="#72777D" stroke-width="1.18293" stroke-linecap="round" stroke-linejoin="round"/>
</svg>
