<svg width="13" height="13" viewBox="0 0 13 13" fill="none" xmlns="http://www.w3.org/2000/svg">
<path d="M6.61809 4.63203V6.40642V4.63203ZM6.61809 6.40642V8.18081V6.40642ZM6.61809 6.40642H8.39248H6.61809ZM6.61809 6.40642H4.8437H6.61809ZM11.9413 6.40642C11.9413 7.10547 11.8036 7.79766 11.5361 8.44354C11.2685 9.08936 10.8765 9.67615 10.3822 10.1705C9.88782 10.6648 9.30103 11.0569 8.65521 11.3244C8.00933 11.5919 7.31714 11.7296 6.61809 11.7296C5.91904 11.7296 5.22684 11.5919 4.581 11.3244C3.93517 11.0569 3.34835 10.6648 2.85404 10.1705C2.35974 9.67615 1.96764 9.08936 1.70012 8.44354C1.43261 7.79766 1.29492 7.10547 1.29492 6.40642C1.29492 4.99463 1.85575 3.64066 2.85404 2.64237C3.85233 1.64408 5.2063 1.08325 6.61809 1.08325C8.02986 1.08325 9.38383 1.64408 10.3822 2.64237C11.3804 3.64066 11.9413 4.99463 11.9413 6.40642Z" stroke="#72777D" stroke-width="1.18293" stroke-linecap="round" stroke-linejoin="round"/>
</svg>
