<svg width="25" height="12" viewBox="0 0 25 12" fill="none" xmlns="http://www.w3.org/2000/svg">
<path d="M0.792356 1.30424C0.791398 1.13273 0.830938 0.962782 0.908652 0.804374C0.986367 0.645966 1.10069 0.502286 1.24492 0.381765C1.5342 0.137308 1.92634 -8.68893e-07 2.33519 -8.53093e-07C2.74404 -8.37293e-07 3.13618 0.137308 3.42546 0.381765L12.6207 8.16188L21.816 0.381766C22.1085 0.151182 22.4953 0.0256489 22.895 0.0316158C23.2947 0.0375827 23.6761 0.174584 23.9588 0.413753C24.2414 0.652923 24.4034 0.97559 24.4104 1.31377C24.4175 1.65196 24.2691 1.97926 23.9966 2.22671L13.711 10.9293C13.4217 11.1738 13.0296 11.3111 12.6207 11.3111C12.2119 11.3111 11.8198 11.1738 11.5305 10.9293L1.24492 2.22671C1.10069 2.10619 0.986367 1.96251 0.908652 1.8041C0.830937 1.6457 0.791398 1.47575 0.792356 1.30424Z" fill="#0645AD"/>
</svg>
