<svg width="13" height="13" viewBox="0 0 13 13" fill="none" xmlns="http://www.w3.org/2000/svg">
<path d="M8.09756 6.32317H6.32317H4.54878M11.6463 6.32317C11.6463 7.02222 11.5086 7.71441 11.2411 8.36029C10.9736 9.00611 10.5815 9.5929 10.0872 10.0872C9.5929 10.5815 9.00611 10.9736 8.36029 11.2411C7.71441 11.5086 7.02222 11.6463 6.32317 11.6463C5.62412 11.6463 4.93192 11.5086 4.28608 11.2411C3.64025 10.9736 3.05342 10.5815 2.55912 10.0872C2.06482 9.5929 1.67272 9.00611 1.4052 8.36029C1.13769 7.71441 1 7.02222 1 6.32317C1 4.91138 1.56083 3.55741 2.55912 2.55912C3.55741 1.56083 4.91138 1 6.32317 1C7.73493 1 9.08891 1.56083 10.0872 2.55912C11.0855 3.55741 11.6463 4.91138 11.6463 6.32317Z" stroke="#72777D" stroke-width="1.18293" stroke-linecap="round" stroke-linejoin="round"/>
</svg>
