<svg width="24" height="12" viewBox="0 0 24 12" fill="none" xmlns="http://www.w3.org/2000/svg">
<path d="M-0.000124944 1.30424C-0.00108206 1.13273 0.0384571 0.962782 0.116172 0.804374C0.193887 0.645966 0.30821 0.502286 0.452437 0.381765C0.741719 0.137308 1.13386 -8.68893e-07 1.54271 -8.53093e-07C1.95156 -8.37293e-07 2.3437 0.137308 2.63298 0.381765L11.8283 8.16188L21.0235 0.381766C21.316 0.151182 21.7028 0.0256489 22.1025 0.0316158C22.5022 0.0375827 22.8836 0.174584 23.1663 0.413753C23.449 0.652923 23.6109 0.97559 23.6179 1.31377C23.625 1.65196 23.4766 1.97926 23.2041 2.22671L12.9185 10.9293C12.6292 11.1738 12.2371 11.3111 11.8283 11.3111C11.4194 11.3111 11.0273 11.1738 10.738 10.9293L0.452437 2.22671C0.30821 2.10619 0.193887 1.96251 0.116172 1.8041C0.038457 1.6457 -0.00108207 1.47575 -0.000124944 1.30424Z" fill="#0645AD"/>
</svg>
