<svg width="13" height="13" viewBox="0 0 13 13" fill="none" xmlns="http://www.w3.org/2000/svg">
<path d="M1.9375 0.262512C1.17437 0.262512 0.5625 0.874387 0.5625 1.63751V11.2625C0.5625 11.6272 0.707366 11.9769 0.965228 12.2348C1.22309 12.4926 1.57283 12.6375 1.9375 12.6375H11.5625C11.9272 12.6375 12.2769 12.4926 12.5348 12.2348C12.7926 11.9769 12.9375 11.6272 12.9375 11.2625V6.45001H11.5625V11.2625H1.9375V1.63751H6.75V0.262512H1.9375ZM10.7238 0.950012C10.6069 0.950012 10.4831 0.998137 10.3937 1.08751L9.555 1.91939L11.2738 3.63814L12.1125 2.80626C12.2912 2.62751 12.2912 2.32501 12.1125 2.15314L11.0469 1.08751C10.9575 0.998137 10.8406 0.950012 10.7238 0.950012ZM9.06687 2.40751L4 7.48126V9.20001H5.71875L10.7856 4.12626L9.06687 2.40751Z" fill="#3366BB"/>
</svg>
