<svg width="14" height="13" viewBox="0 0 14 13" fill="none" xmlns="http://www.w3.org/2000/svg">
<path d="M5.56851 8.42545C5.4314 8.4153 5.30385 8.35358 5.2132 8.25351L3.08133 6.19027C3.03383 6.09402 3.01834 5.98588 3.03697 5.88075C3.05561 5.77562 3.10747 5.67867 3.1854 5.60324C3.26333 5.52782 3.36351 5.47763 3.47214 5.45959C3.58077 5.44155 3.6925 5.45655 3.79195 5.50252L5.54719 7.20126L11.6088 1.37604C11.7082 1.33007 11.82 1.31507 11.9286 1.33311C12.0372 1.35115 12.1374 1.40134 12.2153 1.47676C12.2933 1.55219 12.3451 1.64914 12.3638 1.75427C12.3824 1.8594 12.3669 1.96754 12.3194 2.06379L5.92382 8.25351C5.83316 8.35358 5.70562 8.4153 5.56851 8.42545Z" fill="#3366BB"/>
<path d="M6.63441 12.38C5.49136 12.3782 4.36968 12.08 3.38611 11.5164C2.40254 10.9527 1.59303 10.1442 1.04182 9.1751C0.622828 8.45295 0.363872 7.65425 0.281457 6.82989C0.151399 5.62088 0.392037 4.40158 0.97335 3.32407C1.55466 2.24657 2.45092 1.35857 3.55032 0.770839C4.29648 0.365333 5.12176 0.114713 5.97354 0.0349505C6.82212 -0.0533918 7.68041 0.0261642 8.49624 0.268784C8.56905 0.282864 8.63802 0.31151 8.69872 0.352889C8.75942 0.394267 8.81052 0.447464 8.84875 0.50907C8.88697 0.570676 8.91147 0.639331 8.92067 0.710634C8.92988 0.781938 8.92359 0.854317 8.90221 0.923131C8.88083 0.991945 8.84483 1.05568 8.79651 1.11024C8.7482 1.1648 8.68864 1.209 8.62165 1.23998C8.55466 1.27097 8.48172 1.28807 8.4075 1.29018C8.33329 1.2923 8.25943 1.27938 8.19068 1.25226C7.50038 1.05139 6.77559 0.985916 6.05881 1.05969C5.35032 1.1299 4.66383 1.33811 4.04065 1.67179C3.44026 1.99235 2.90944 2.42202 2.47728 2.93724C2.03233 3.4621 1.70007 4.06761 1.49995 4.71831C1.29984 5.36901 1.23589 6.05181 1.31186 6.72672C1.38441 7.41241 1.59954 8.0768 1.94431 8.67992C2.27553 9.26098 2.7195 9.77472 3.25186 10.193C3.79417 10.6236 4.41982 10.9452 5.09216 11.1388C5.7645 11.3325 6.47002 11.3944 7.16738 11.3209C7.87587 11.2507 8.56236 11.0425 9.18555 10.7088C9.78593 10.3882 10.3168 9.95854 10.7489 9.44332C11.1939 8.91846 11.5261 8.31295 11.7262 7.66225C11.9264 7.01156 11.9903 6.32876 11.9143 5.65384C11.9073 5.58294 11.9148 5.5114 11.9364 5.44331C11.958 5.37522 11.9932 5.3119 12.04 5.25698C12.0869 5.20206 12.1445 5.1566 12.2095 5.12321C12.2745 5.08982 12.3456 5.06915 12.4189 5.06238C12.4921 5.0556 12.566 5.06286 12.6364 5.08373C12.7068 5.10461 12.7722 5.13869 12.8289 5.18403C12.8857 5.22937 12.9327 5.28509 12.9672 5.348C13.0017 5.41091 13.023 5.47978 13.03 5.55068C13.1594 6.7604 12.9177 7.98021 12.3351 9.05779C11.7525 10.1354 10.8548 11.023 9.75404 11.6097C8.99994 12.0318 8.16193 12.2944 7.29529 12.38C7.075 12.38 6.8476 12.38 6.63441 12.38Z" fill="#3366BB"/>
</svg>
