<svg width="14" height="11" viewBox="0 0 14 11" fill="none" xmlns="http://www.w3.org/2000/svg">
<path d="M7.37478 10.0071C3.05318 10.0071 1.0221 5.41868 0.933148 5.22595C0.903788 5.15549 0.888672 5.07991 0.888672 5.00357C0.888672 4.92724 0.903788 4.85165 0.933148 4.78119C1.0221 4.58846 3.05318 0 7.37478 0C11.6964 0 13.7275 4.58846 13.8164 4.78119C13.8458 4.85165 13.8609 4.92724 13.8609 5.00357C13.8609 5.07991 13.8458 5.15549 13.8164 5.22595C13.7275 5.41868 11.6964 10.0071 7.37478 10.0071ZM2.05988 5.00357C2.49723 5.85603 4.28369 8.89524 7.37478 8.89524C10.4659 8.89524 12.2523 5.85603 12.6897 5.00357C12.2523 4.15111 10.4659 1.1119 7.37478 1.1119C4.28369 1.1119 2.49723 4.15111 2.05988 5.00357Z" fill="#72777D"/>
<path d="M7.37495 7.41274C6.89847 7.41274 6.43269 7.27144 6.03651 7.00673C5.64033 6.74201 5.33155 6.36575 5.14921 5.92554C4.96686 5.48533 4.91916 5.00094 5.01211 4.53361C5.10507 4.06629 5.33452 3.63702 5.67144 3.3001C6.00836 2.96318 6.43763 2.73373 6.90495 2.64077C7.37228 2.54782 7.85667 2.59553 8.29688 2.77787C8.73709 2.96021 9.11335 3.26899 9.37806 3.66517C9.64278 4.06135 9.78408 4.52713 9.78408 5.00361C9.78212 5.64195 9.52767 6.25358 9.0763 6.70496C8.62492 7.15634 8.01329 7.41078 7.37495 7.41274ZM7.37495 3.70639C7.11838 3.70639 6.86758 3.78247 6.65425 3.92501C6.44092 4.06755 6.27466 4.27015 6.17647 4.50719C6.07829 4.74422 6.0526 5.00505 6.10265 5.25669C6.15271 5.50832 6.27625 5.73947 6.45767 5.92089C6.63909 6.10231 6.87024 6.22585 7.12187 6.27591C7.37351 6.32596 7.63434 6.30027 7.87137 6.20209C8.10841 6.1039 8.31101 5.93764 8.45355 5.72431C8.59609 5.51098 8.67217 5.26018 8.67217 5.00361C8.67022 4.66017 8.53293 4.33134 8.29007 4.08849C8.04722 3.84563 7.71839 3.70833 7.37495 3.70639Z" fill="#72777D"/>
</svg>

