<svg width="24" height="18" viewBox="0 0 24 18" fill="none" xmlns="http://www.w3.org/2000/svg">
<path d="M12.1249 17.6357C4.50888 17.6357 0.929479 9.54941 0.772717 9.20976C0.720975 9.08558 0.694336 8.95238 0.694336 8.81786C0.694336 8.68333 0.720975 8.55013 0.772717 8.42595C0.929479 8.0863 4.50888 0 12.1249 0C19.7409 0 23.3203 8.0863 23.4771 8.42595C23.5288 8.55013 23.5554 8.68333 23.5554 8.81786C23.5554 8.95238 23.5288 9.08558 23.4771 9.20976C23.3203 9.54941 19.7409 17.6357 12.1249 17.6357ZM2.75837 8.81786C3.52911 10.3202 6.67741 15.6762 12.1249 15.6762C17.5724 15.6762 20.7207 10.3202 21.4914 8.81786C20.7207 7.31556 17.5724 1.95952 12.1249 1.95952C6.67741 1.95952 3.52911 7.31556 2.75837 8.81786Z" fill="#0645AD"/>
<path d="M12.125 13.0635C11.2853 13.0635 10.4645 12.8145 9.76628 12.348C9.06809 11.8815 8.52392 11.2184 8.20258 10.4426C7.88123 9.66685 7.79716 8.81319 7.96097 7.98962C8.12479 7.16605 8.52915 6.40955 9.12291 5.81579C9.71668 5.22202 10.4732 4.81766 11.2967 4.65385C12.1203 4.49003 12.974 4.57411 13.7498 4.89545C14.5256 5.21679 15.1886 5.76096 15.6551 6.45915C16.1217 7.15735 16.3707 7.9782 16.3707 8.8179C16.3672 9.94286 15.9188 11.0207 15.1233 11.8162C14.3279 12.6117 13.25 13.0601 12.125 13.0635ZM12.125 6.53179C11.6729 6.53179 11.2309 6.66587 10.8549 6.91707C10.479 7.16827 10.186 7.52531 10.0129 7.94305C9.83991 8.36078 9.79464 8.82044 9.88285 9.2639C9.97106 9.70736 10.1888 10.1147 10.5085 10.4344C10.8282 10.7541 11.2356 10.9719 11.679 11.0601C12.1225 11.1483 12.5822 11.103 12.9999 10.93C13.4176 10.757 13.7747 10.4639 14.0259 10.088C14.2771 9.71205 14.4111 9.27005 14.4111 8.8179C14.4077 8.21265 14.1658 7.63316 13.7378 7.20517C13.3098 6.77718 12.7303 6.53522 12.125 6.53179Z" fill="#0645AD"/>
</svg>

