<svg width="21" height="21" viewBox="0 0 21 21" fill="none" xmlns="http://www.w3.org/2000/svg">
<path d="M7.02134 16.8929C7.02134 16.9847 6.92953 17.0503 6.79838 17.0503C6.66723 17.0503 6.56231 17.0503 6.56231 16.8929C6.56231 16.7355 6.66723 16.7355 6.78527 16.7355C6.9033 16.7355 7.02134 16.8011 7.02134 16.8929ZM5.70984 16.6962C5.70984 16.788 5.70984 16.8929 5.89345 16.9191C5.94042 16.9417 5.99441 16.9447 6.04358 16.9274C6.09276 16.9102 6.13309 16.8742 6.15575 16.8273C6.15575 16.7355 6.15575 16.6437 5.97214 16.6043C5.78853 16.565 5.73607 16.6043 5.70984 16.6962ZM7.57216 16.6306C7.45413 16.6306 7.37544 16.7355 7.38855 16.8404C7.40167 16.9453 7.50659 16.9847 7.63774 16.9585C7.76889 16.9322 7.83446 16.8404 7.82135 16.7486C7.80823 16.6568 7.70331 16.6175 7.57216 16.6306ZM10.3656 0.000824902C8.9825 -0.0121928 7.61097 0.254356 6.33338 0.784477C5.05578 1.3146 3.89845 2.09736 2.93084 3.08579C1.96323 4.07423 1.20528 5.24796 0.702476 6.53655C0.199673 7.82514 -0.0376193 9.20203 0.00483928 10.5846C-0.0317708 12.8494 0.639903 15.0691 1.92605 16.9337C3.21219 18.7982 5.04858 20.2145 7.17871 20.9847C7.71643 21.0765 7.91315 20.7356 7.91315 20.4601C7.91315 20.1847 7.91315 18.7027 7.91315 17.8372C7.91315 17.8372 4.94917 18.4929 4.31966 16.5257C4.31966 16.5257 3.84752 15.2142 3.15243 14.9387C3.15243 14.9387 2.18192 14.2568 3.218 14.2699C3.55734 14.3156 3.88123 14.4403 4.16366 14.6339C4.44609 14.8275 4.67919 15.0847 4.84425 15.3847C4.98148 15.6536 5.17222 15.8917 5.40477 16.0844C5.63732 16.277 5.90678 16.42 6.19661 16.5048C6.48644 16.5895 6.79053 16.6141 7.09022 16.5771C7.3899 16.5401 7.67887 16.4423 7.93938 16.2896C7.98902 15.742 8.22513 15.2282 8.60824 14.8338C6.24755 14.5584 3.86063 14.2174 3.86063 10.0338C3.83556 9.56114 3.91149 9.0886 4.08336 8.64762C4.25523 8.20665 4.51909 7.80735 4.85737 7.47634C4.53821 6.5163 4.57546 5.47343 4.96229 4.5386C5.85411 4.25007 7.88692 5.70583 7.88692 5.70583C9.62356 5.21603 11.4618 5.21603 13.1985 5.70583C13.1985 5.70583 15.2313 4.25007 16.1231 4.5386C16.5183 5.47159 16.5557 6.51753 16.228 7.47634C16.5782 7.80279 16.8561 8.19908 17.0436 8.63959C17.2311 9.08011 17.3241 9.55506 17.3166 10.0338C17.3166 14.2305 14.8247 14.5584 12.464 14.8338C12.7013 15.1 12.8818 15.4117 12.9946 15.7499C13.1073 16.0881 13.1499 16.4458 13.1198 16.8011C13.1198 18.2699 13.1198 20.0798 13.1198 20.4339C13.1189 20.5225 13.1395 20.6099 13.1796 20.6889C13.2198 20.7678 13.2784 20.8359 13.3504 20.8874C13.4225 20.9389 13.5059 20.9722 13.5936 20.9846C13.6813 20.997 13.7707 20.988 13.8542 20.9585C15.9805 20.195 17.8131 18.7827 19.0933 16.9213C20.3734 15.0598 21.0365 12.8433 20.9888 10.5846C21.0011 9.18795 20.7344 7.80291 20.2044 6.51068C19.6745 5.21845 18.8918 4.04505 17.9024 3.05927C16.9129 2.0735 15.7366 1.2952 14.4424 0.770006C13.1482 0.244817 11.7622 -0.0166882 10.3656 0.000824902ZM4.12293 14.965C4.12293 14.965 4.12293 15.1092 4.12293 15.1879C4.13755 15.2026 4.15493 15.2142 4.17406 15.2222C4.19319 15.2301 4.2137 15.2342 4.23441 15.2342C4.25512 15.2342 4.27563 15.2301 4.29476 15.2222C4.31389 15.2142 4.33127 15.2026 4.34589 15.1879C4.34589 15.1879 4.34589 15.0437 4.34589 14.9519C4.34589 14.8601 4.17539 14.9125 4.12293 14.965ZM3.66391 14.6109C3.66391 14.6109 3.66391 14.742 3.75571 14.7814C3.76678 14.7951 3.78077 14.8061 3.79665 14.8137C3.81254 14.8213 3.82992 14.8252 3.84752 14.8252C3.86512 14.8252 3.8825 14.8213 3.89839 14.8137C3.91427 14.8061 3.92826 14.7951 3.93932 14.7814C3.93932 14.7814 3.93932 14.6502 3.84752 14.6109C3.75571 14.5715 3.69014 14.5715 3.66391 14.6109ZM4.9754 16.1584C4.9754 16.1584 4.9754 16.342 4.9754 16.4339C4.9754 16.5257 5.19836 16.5388 5.25082 16.4339C5.30328 16.3289 5.25082 16.2502 5.25082 16.1584C5.25082 16.0666 5.08032 16.0929 5.02786 16.1584H4.9754ZM4.49015 15.5158C4.49015 15.5158 4.49015 15.6732 4.49015 15.7781C4.49015 15.883 4.67376 15.9224 4.73934 15.883C4.77255 15.8448 4.79084 15.7959 4.79084 15.7453C4.79084 15.6947 4.77255 15.6458 4.73934 15.6076C4.67376 15.5027 4.56884 15.4633 4.49015 15.5158Z" fill="#72777D"/>
</svg>