<svg width="31" height="31" viewBox="0 0 31 31" fill="none" xmlns="http://www.w3.org/2000/svg">
<rect x="0.25" y="0.25" width="30.5" height="30.5" rx="15.25" fill="white" stroke="#A2A9B1" stroke-width="0.5"/>
<path d="M15.5 17C12.83 17 7.5 18.33 7.5 21V23H23.5V21C23.5 18.33 18.17 17 15.5 17ZM15.5 15C16.5609 15 17.5783 14.5786 18.3284 13.8284C19.0786 13.0783 19.5 12.0609 19.5 11C19.5 9.93913 19.0786 8.92172 18.3284 8.17157C17.5783 7.42143 16.5609 7 15.5 7C14.4391 7 13.4217 7.42143 12.6716 8.17157C11.9214 8.92172 11.5 9.93913 11.5 11C11.5 12.0609 11.9214 13.0783 12.6716 13.8284C13.4217 14.5786 14.4391 15 15.5 15Z" fill="#72777D"/>
</svg>
