<svg width="117" height="30" viewBox="0 0 117 30" fill="none" xmlns="http://www.w3.org/2000/svg">
<path d="M58.8122 13.9347H54.29C54.2579 13.5605 54.1724 13.2211 54.0334 12.9164C53.8998 12.6117 53.7127 12.3498 53.4722 12.1306C53.237 11.9061 52.951 11.7351 52.6142 11.6175C52.2775 11.4945 51.8953 11.433 51.4676 11.433C50.7193 11.433 50.0859 11.6148 49.5674 11.9783C49.0542 12.3418 48.664 12.8629 48.3967 13.5418C48.1348 14.2207 48.0038 15.0358 48.0038 15.9873C48.0038 16.9923 48.1375 17.8342 48.4047 18.513C48.6773 19.1866 49.0702 19.6944 49.5834 20.0365C50.0965 20.3732 50.7139 20.5416 51.4356 20.5416C51.8472 20.5416 52.216 20.4908 52.5421 20.3893C52.8681 20.2824 53.1514 20.13 53.392 19.9322C53.6325 19.7345 53.8276 19.4966 53.9773 19.2186C54.1323 18.9353 54.2366 18.6173 54.29 18.2645L58.8122 18.2965C58.7588 18.9914 58.5637 19.6997 58.2269 20.4213C57.8902 21.1376 57.4117 21.8005 56.7917 22.4098C56.1769 23.0139 55.4152 23.5003 54.5065 23.8691C53.5978 24.238 52.5421 24.4224 51.3394 24.4224C49.832 24.4224 48.4796 24.099 47.2822 23.4522C46.0902 22.8054 45.1467 21.8539 44.4518 20.5977C43.7622 19.3416 43.4175 17.8048 43.4175 15.9873C43.4175 14.1592 43.7703 12.6197 44.4759 11.3689C45.1814 10.1127 46.1329 9.16392 47.3303 8.52247C48.5277 7.87568 49.864 7.55228 51.3394 7.55228C52.3764 7.55228 53.3305 7.69393 54.2018 7.97724C55.0731 8.26054 55.8375 8.67481 56.495 9.22005C57.1525 9.75993 57.6817 10.4254 58.0826 11.2166C58.4835 12.0077 58.7267 12.9137 58.8122 13.9347ZM65.3249 17.2702V24.1979H60.8989V7.77679H65.1646V14.2233H65.2929C65.5708 13.4376 66.0332 12.8255 66.68 12.3872C67.3268 11.9435 68.1046 11.7217 69.0133 11.7217C69.8846 11.7217 70.641 11.9195 71.2824 12.315C71.9292 12.7106 72.429 13.2558 72.7818 13.9507C73.1399 14.6456 73.3163 15.4421 73.311 16.3401V24.1979H68.885V17.2702C68.8903 16.6609 68.738 16.1824 68.428 15.835C68.1233 15.4875 67.6876 15.3138 67.121 15.3138C66.7629 15.3138 66.4475 15.394 66.1749 15.5544C65.9076 15.7094 65.6991 15.9339 65.5495 16.2279C65.4051 16.5165 65.3303 16.864 65.3249 17.2702ZM81.3972 24.4224C80.0823 24.4224 78.9491 24.1711 77.9976 23.6687C77.0514 23.1609 76.3218 22.4339 75.8086 21.4878C75.3008 20.5363 75.0469 19.3977 75.0469 18.072C75.0469 16.7998 75.3035 15.688 75.8166 14.7365C76.3298 13.785 77.0541 13.0447 77.9896 12.5155C78.925 11.9863 80.0288 11.7217 81.301 11.7217C82.2311 11.7217 83.073 11.866 83.8267 12.1547C84.5804 12.4433 85.2246 12.8629 85.7591 13.4135C86.2936 13.9587 86.7052 14.6216 86.9939 15.402C87.2825 16.1824 87.4269 17.0618 87.4269 18.04V19.0663H76.426V16.6288H83.3537C83.3483 16.276 83.2574 15.9659 83.0811 15.6987C82.91 15.4261 82.6775 15.2149 82.3835 15.0652C82.0948 14.9102 81.7661 14.8327 81.3972 14.8327C81.0391 14.8327 80.7104 14.9102 80.411 15.0652C80.1117 15.2149 79.8711 15.4234 79.6894 15.6907C79.513 15.9579 79.4194 16.2706 79.4088 16.6288V19.2587C79.4088 19.6543 79.4916 20.0071 79.6573 20.3171C79.823 20.6271 80.0609 20.8704 80.3709 21.0468C80.681 21.2232 81.0551 21.3114 81.4935 21.3114C81.7982 21.3114 82.0761 21.2686 82.3273 21.1831C82.5839 21.0975 82.8031 20.9746 82.9848 20.8142C83.1666 20.6485 83.3002 20.4507 83.3857 20.2209H87.4269C87.2879 21.0762 86.9591 21.8192 86.4406 22.4499C85.9221 23.0753 85.2352 23.5618 84.38 23.9092C83.5301 24.2513 82.5358 24.4224 81.3972 24.4224ZM95.1663 24.4224C93.83 24.4224 92.6861 24.1578 91.7346 23.6286C90.7831 23.094 90.0535 22.351 89.5457 21.3996C89.0378 20.4427 88.7839 19.3336 88.7839 18.072C88.7839 16.8105 89.0378 15.704 89.5457 14.7525C90.0535 13.7957 90.7831 13.0527 91.7346 12.5235C92.6861 11.989 93.83 11.7217 95.1663 11.7217C96.3744 11.7217 97.4194 11.9409 98.3014 12.3792C99.1888 12.8122 99.8756 13.4269 100.362 14.2233C100.849 15.0145 101.094 15.9446 101.1 17.0136H96.9945C96.9357 16.3669 96.7486 15.8751 96.4332 15.5383C96.1232 15.1962 95.7223 15.0252 95.2305 15.0252C94.8456 15.0252 94.5089 15.1374 94.2202 15.3619C93.9316 15.5811 93.707 15.9152 93.5467 16.3642C93.3863 16.8079 93.3061 17.3664 93.3061 18.04C93.3061 18.7135 93.3863 19.2748 93.5467 19.7238C93.707 20.1674 93.9316 20.5015 94.2202 20.726C94.5089 20.9452 94.8456 21.0548 95.2305 21.0548C95.5566 21.0548 95.8452 20.9799 96.0964 20.8303C96.3477 20.6753 96.5508 20.4507 96.7058 20.1567C96.8662 19.8574 96.9624 19.4939 96.9945 19.0663H101.1C101.084 20.1514 100.835 21.0975 100.354 21.9047C99.873 22.7065 99.1914 23.3266 98.3094 23.7649C97.4328 24.2032 96.3851 24.4224 95.1663 24.4224ZM106.903 21.2793L106.935 16.0194H107.512L110.495 11.8821H115.466L110.463 18.3286H109.212L106.903 21.2793ZM102.926 24.1979V7.77679H107.352V24.1979H102.926ZM110.527 24.1979L107.705 19.3229L110.591 16.1798L115.594 24.1979H110.527Z" fill="#0645AD"/>
<path fill-rule="evenodd" clip-rule="evenodd" d="M0.444824 15.8243L2.42287 11.6485L7.0383 16.4837L14.0713 0H18.6868L8.13721 23.9563L0.444824 15.8243ZM12.9722 15.8244L14.9503 11.6485L19.5657 16.4837L26.5988 2.38911e-05H31.2142L20.6646 23.9563L12.9722 15.8244ZM30.6623 23.6687C31.6138 24.1711 32.747 24.4224 34.062 24.4224C35.2005 24.4224 36.1948 24.2513 37.0447 23.9092C37.9 23.5617 38.5869 23.0753 39.1054 22.4499C39.6239 21.8191 39.9526 21.0761 40.0916 20.2209H36.0505C35.9649 20.4507 35.8313 20.6485 35.6496 20.8142C35.4678 20.9746 35.2486 21.0975 34.9921 21.183C34.7408 21.2686 34.4629 21.3113 34.1582 21.3113C33.7199 21.3113 33.3457 21.2231 33.0356 21.0467C32.7256 20.8703 32.4877 20.6271 32.322 20.3171C32.1563 20.0071 32.0735 19.6543 32.0735 19.2587V19.0663H40.0916V18.0399C40.0916 17.0617 39.9473 16.1824 39.6586 15.402C39.37 14.6216 38.9584 13.9587 38.4238 13.4135C37.8893 12.8629 37.2452 12.4433 36.4915 12.1547C35.7378 11.866 34.8959 11.7217 33.9657 11.7217C32.6935 11.7217 31.5897 11.9863 30.6543 12.5155C29.7188 13.0447 28.9945 13.785 28.4814 14.7365C27.9682 15.688 27.7116 16.7998 27.7116 18.072C27.7116 19.3977 27.9655 20.5362 28.4733 21.4877C28.9865 22.4339 29.7162 23.1608 30.6623 23.6687ZM32.0735 16.6288C32.0842 16.2706 32.1777 15.9579 32.3541 15.6906C32.5359 15.4234 32.7764 15.2149 33.0757 15.0652C33.3751 14.9102 33.7038 14.8327 34.062 14.8327C34.4308 14.8327 34.7595 14.9102 35.0482 15.0652C35.3422 15.2149 35.5747 15.426 35.7458 15.6987C35.9222 15.9659 36.013 16.276 36.0184 16.6288H32.0735Z" fill="url(#paint0_linear_187_3143)"/>
<defs>
<linearGradient id="paint0_linear_187_3143" x1="0.444825" y1="12.3044" x2="40.0916" y2="12.3044" gradientUnits="userSpaceOnUse">
<stop offset="0.0364583" stop-color="#0645AD"/>
<stop offset="0.213542" stop-color="#FD9F12"/>
<stop offset="0.416667" stop-color="#FC4646"/>
<stop offset="0.651042" stop-color="#B219F0"/>
<stop offset="0.791667" stop-color="#24CA7A"/>
<stop offset="0.911458" stop-color="#1D6C3D"/>
<stop offset="1" stop-color="#0645AD"/>
</linearGradient>
</defs>
</svg>
