<svg width="31" height="31" viewBox="0 0 31 31" fill="none" xmlns="http://www.w3.org/2000/svg">
<rect x="0.25" y="0.25" width="30.5" height="30.5" rx="15.25" fill="white" stroke="#A2A9B1" stroke-width="0.5"/>
<path d="M17 17C14.33 17 9 18.33 9 21V23H25V21C25 18.33 19.67 17 17 17ZM17 15C18.0609 15 19.0783 14.5786 19.8284 13.8284C20.5786 13.0783 21 12.0609 21 11C21 9.93913 20.5786 8.92172 19.8284 8.17157C19.0783 7.42143 18.0609 7 17 7C15.9391 7 14.9217 7.42143 14.1716 8.17157C13.4214 8.92172 13 9.93913 13 11C13 12.0609 13.4214 13.0783 14.1716 13.8284C14.9217 14.5786 15.9391 15 17 15Z" fill="#C8CCD1"/>
<path d="M7.5 11V14.5M7.5 14.5V18M7.5 14.5H11M7.5 14.5H4" stroke="#72777D" stroke-width="2" stroke-linecap="round" stroke-linejoin="round"/>
</svg>
