<svg width="31" height="31" viewBox="0 0 31 31" fill="none" xmlns="http://www.w3.org/2000/svg">
<rect x="0.25" y="0.25" width="30.5" height="30.5" rx="15.25" fill="white" stroke="#A2A9B1" stroke-width="0.5"/>
<path d="M18.1909 17.54C17.4353 17.5416 16.6869 17.3941 15.9884 17.1058C15.29 16.8175 14.6554 16.3941 14.1209 15.86C13.1742 14.918 12.5837 13.6767 12.4499 12.3479C12.3162 11.0191 12.6475 9.68501 13.3874 8.57319C14.1274 7.46138 15.2301 6.64067 16.5075 6.25103C17.7849 5.86139 19.158 5.92694 20.3924 6.43651C21.6269 6.94608 22.6464 7.86811 23.2771 9.04536C23.9077 10.2226 24.1105 11.5822 23.8507 12.8922C23.591 14.2022 22.8848 15.3816 21.8527 16.2291C20.8206 17.0767 19.5264 17.54 18.1909 17.54ZM18.1909 7.54C17.3519 7.54205 16.5322 7.79242 15.8352 8.25956C15.1382 8.72669 14.5951 9.38969 14.2742 10.165C13.9534 10.9403 13.8693 11.7932 14.0324 12.6163C14.1955 13.4393 14.5986 14.1957 15.1909 14.79C15.6848 15.2856 16.2934 15.6516 16.9627 15.8555C17.632 16.0594 18.3413 16.0949 19.0276 15.9589C19.7139 15.8229 20.356 15.5195 20.8969 15.0757C21.4379 14.6319 21.8609 14.0615 22.1284 13.415C22.3959 12.7685 22.4997 12.0659 22.4305 11.3697C22.3613 10.6735 22.1213 10.0051 21.7317 9.42387C21.3422 8.84266 20.8152 8.36661 20.1975 8.03798C19.5798 7.70935 18.8906 7.53829 18.1909 7.54Z" fill="#72777D"/>
<path d="M7.69098 23.04C7.49804 23.0253 7.31855 22.9355 7.19098 22.79C7.06799 22.6525 7 22.4745 7 22.29C7 22.1055 7.06799 21.9275 7.19098 21.79L13.651 15.32C13.7929 15.1794 13.9848 15.101 14.1845 15.1019C14.2834 15.1024 14.3812 15.1223 14.4724 15.1606C14.5636 15.1989 14.6464 15.2547 14.716 15.325C14.7856 15.3953 14.8407 15.4785 14.8781 15.5701C14.9155 15.6616 14.9345 15.7596 14.9341 15.8585C14.9336 15.9574 14.9136 16.0553 14.8754 16.1465C14.8371 16.2376 14.7812 16.3204 14.711 16.39L8.19098 22.79C8.06341 22.9355 7.88393 23.0253 7.69098 23.04Z" fill="#72777D"/>
<path d="M11.1908 23.54C11.0922 23.5405 10.9946 23.5213 10.9036 23.4835C10.8126 23.4457 10.73 23.3901 10.6608 23.32L8.66076 21.32C8.52828 21.1778 8.45616 20.9898 8.45959 20.7955C8.46302 20.6012 8.54173 20.4158 8.67914 20.2784C8.81656 20.141 9.00194 20.0623 9.19624 20.0588C9.39054 20.0554 9.57859 20.1275 9.72076 20.26L11.7208 22.26C11.8612 22.4006 11.9401 22.5913 11.9401 22.79C11.9401 22.9888 11.8612 23.1794 11.7208 23.32C11.6515 23.3901 11.569 23.4457 11.478 23.4835C11.3869 23.5213 11.2893 23.5405 11.1908 23.54Z" fill="#72777D"/>
<path d="M13.1911 21.54C13.0925 21.5405 12.9949 21.5213 12.9039 21.4835C12.8129 21.4457 12.7303 21.3901 12.6611 21.32L10.6611 19.32C10.5874 19.2513 10.5283 19.1685 10.4873 19.0765C10.4463 18.9845 10.4243 18.8852 10.4225 18.7845C10.4207 18.6838 10.4392 18.5838 10.4769 18.4904C10.5147 18.397 10.5708 18.3122 10.642 18.241C10.7133 18.1698 10.7981 18.1136 10.8915 18.0759C10.9849 18.0382 11.0849 18.0196 11.1856 18.0214C11.2863 18.0232 11.3856 18.0452 11.4776 18.0862C11.5696 18.1272 11.6524 18.1863 11.7211 18.26L13.7211 20.26C13.8615 20.4006 13.9404 20.5913 13.9404 20.79C13.9404 20.9888 13.8615 21.1794 13.7211 21.32C13.6518 21.3901 13.5693 21.4457 13.4783 21.4835C13.3873 21.5213 13.2896 21.5405 13.1911 21.54Z" fill="#72777D"/>
</svg>
