<svg width="13" height="13" viewBox="0 0 13 13" fill="none" xmlns="http://www.w3.org/2000/svg">
<path d="M11.7584 4.10032H1.19487C1.12985 4.10032 1.06546 4.08751 1.00538 4.06263C0.945305 4.03774 0.890718 4.00127 0.844738 3.95529C0.798757 3.90931 0.762284 3.85472 0.737399 3.79464C0.712515 3.73457 0.699707 3.67018 0.699707 3.60515C0.699707 3.54013 0.712515 3.47574 0.737399 3.41566C0.762284 3.35558 0.798757 3.301 0.844738 3.25502C0.890718 3.20904 0.945305 3.17256 1.00538 3.14768C1.06546 3.12279 1.12985 3.10999 1.19487 3.10999H11.7584C11.8897 3.10999 12.0157 3.16215 12.1086 3.25502C12.2014 3.34788 12.2536 3.47383 12.2536 3.60515C12.2536 3.73648 12.2014 3.86243 12.1086 3.95529C12.0157 4.04815 11.8897 4.10032 11.7584 4.10032Z" fill="#72777D"/>
<path d="M9.4084 12.056H3.54564C3.33641 12.0703 3.12642 12.0429 2.92784 11.9755C2.72927 11.908 2.54606 11.8018 2.38885 11.663C2.23163 11.5242 2.10353 11.3556 2.01197 11.1669C1.92041 10.9783 1.86721 10.7733 1.85547 10.5639V3.63818C1.85547 3.50685 1.90764 3.3809 2.0005 3.28804C2.09336 3.19518 2.21931 3.14301 2.35063 3.14301C2.48196 3.14301 2.60791 3.19518 2.70077 3.28804C2.79363 3.3809 2.8458 3.50685 2.8458 3.63818V10.5639C2.8458 10.8346 3.15611 11.0657 3.50602 11.0657H9.36879C9.73851 11.0657 10.029 10.8346 10.029 10.5639V3.63818C10.029 3.49635 10.0854 3.36032 10.1856 3.26003C10.2859 3.15974 10.422 3.1034 10.5638 3.1034C10.7056 3.1034 10.8416 3.15974 10.9419 3.26003C11.0422 3.36032 11.0986 3.49635 11.0986 3.63818V10.5639C11.0868 10.7733 11.0336 10.9783 10.9421 11.1669C10.8505 11.3556 10.7224 11.5242 10.5652 11.663C10.408 11.8018 10.2248 11.908 10.0262 11.9755C9.82762 12.0429 9.61763 12.0703 9.4084 12.056ZM9.48763 3.47312C9.42236 3.47401 9.35757 3.46181 9.29709 3.43724C9.23661 3.41267 9.18167 3.37623 9.13551 3.33007C9.08936 3.28391 9.05292 3.22897 9.02835 3.16849C9.00378 3.10802 8.99157 3.04323 8.99246 2.97796V1.99423C8.99246 1.72354 8.67556 1.49246 8.33224 1.49246H4.6416C4.27848 1.49246 3.98138 1.72354 3.98138 1.99423V2.97796C3.98138 3.10928 3.92921 3.23523 3.83635 3.32809C3.74349 3.42095 3.61754 3.47312 3.48622 3.47312C3.35489 3.47312 3.22894 3.42095 3.13608 3.32809C3.04322 3.23523 2.99105 3.10928 2.99105 2.97796V1.99423C3.01661 1.57915 3.20366 1.19058 3.51216 0.911704C3.82065 0.632827 4.22606 0.485809 4.6416 0.502126H8.31243C8.73131 0.480462 9.14181 0.625072 9.45462 0.904499C9.76743 1.18393 9.95725 1.57557 9.98279 1.99423V2.97796C9.98367 3.04354 9.97151 3.10864 9.94701 3.16948C9.92252 3.23032 9.88619 3.28569 9.84012 3.33237C9.79405 3.37905 9.73917 3.41611 9.67866 3.44141C9.61815 3.46671 9.55321 3.47973 9.48763 3.47972V3.47312Z" fill="#72777D"/>
<path d="M5.30181 9.5802C5.17101 9.57849 5.04606 9.52577 4.95356 9.43327C4.86107 9.34078 4.80835 9.21582 4.80664 9.08503V6.09423C4.80664 5.9629 4.85881 5.83695 4.95167 5.74409C5.04453 5.65123 5.17048 5.59906 5.30181 5.59906C5.43313 5.59906 5.55908 5.65123 5.65194 5.74409C5.7448 5.83695 5.79697 5.9629 5.79697 6.09423V9.07843C5.79785 9.14401 5.78569 9.20911 5.76119 9.26995C5.7367 9.33079 5.70036 9.38616 5.6543 9.43284C5.60823 9.47952 5.55335 9.51659 5.49284 9.54188C5.43233 9.56718 5.36739 9.5802 5.30181 9.5802Z" fill="#72777D"/>
<path d="M7.65142 9.5802C7.52009 9.5802 7.39414 9.52803 7.30128 9.43516C7.20842 9.3423 7.15625 9.21636 7.15625 9.08503V6.09423C7.15625 5.9629 7.20842 5.83695 7.30128 5.74409C7.39414 5.65123 7.52009 5.59906 7.65142 5.59906C7.78274 5.59906 7.90869 5.65123 8.00155 5.74409C8.09441 5.83695 8.14658 5.9629 8.14658 6.09423V9.07843C8.14659 9.21037 8.09464 9.33701 8.00196 9.43092C7.90928 9.52483 7.78335 9.57846 7.65142 9.5802Z" fill="#72777D"/>
</svg>
