<svg width="23" height="21" viewBox="0 0 23 21" fill="none" xmlns="http://www.w3.org/2000/svg">
<path d="M1.93475 17.0385C1.78518 17.0411 1.6372 17.0074 1.50347 16.9404C1.36974 16.8733 1.25423 16.7749 1.16682 16.6535C1.07941 16.5321 1.02269 16.3913 1.00152 16.2432C0.980342 16.0951 0.99534 15.9441 1.04523 15.8031L2.58954 10.713C2.27372 9.84539 2.10665 8.93065 2.09536 8.00739C2.09293 6.9417 2.3073 5.88664 2.72544 4.90641C3.23234 3.69917 4.02759 2.63468 5.04152 1.80624C6.05545 0.977797 7.25709 0.410686 8.54115 0.154607C9.8252 -0.101472 11.1525 -0.0387006 12.4066 0.337419C13.6608 0.713538 14.8035 1.39152 15.7347 2.31196C16.4574 3.0461 17.0357 3.9094 17.4397 4.85699C17.8501 5.83498 18.0615 6.88498 18.0615 7.94562C18.0615 9.00625 17.8501 10.0563 17.4397 11.0342C17.0357 11.9818 16.4574 12.8451 15.7347 13.5793C14.6514 14.6607 13.2807 15.4089 11.7852 15.7351C10.2897 16.0614 8.73192 15.9521 7.29661 15.4201L2.20655 17.0015C2.11802 17.0259 2.0266 17.0384 1.93475 17.0385ZM10.0764 1.83013C9.25716 1.82775 8.44597 1.99167 7.69196 2.31196C6.23124 2.92841 5.06347 4.08291 4.43036 5.53649C4.11266 6.29345 3.94903 7.10615 3.94903 7.92709C3.94903 8.74802 4.11266 9.56072 4.43036 10.3177C4.50397 10.5213 4.50397 10.7442 4.43036 10.9478L3.29375 14.6541L7.0001 13.5175C7.20368 13.4439 7.4266 13.4439 7.63018 13.5175C9.13035 14.1405 10.8155 14.1476 12.3209 13.5371C13.8262 12.9267 15.0305 11.7478 15.673 10.2559C16.0345 9.3318 16.1681 8.3342 16.0624 7.34753C15.9567 6.36087 15.6149 5.41418 15.0658 4.5876C14.5168 3.76102 13.7767 3.07887 12.9082 2.59889C12.0397 2.1189 11.0684 1.85521 10.0764 1.83013Z" fill="#72777D"/>
<path d="M21.0841 20.9796C20.9939 20.9917 20.9025 20.9917 20.8123 20.9796L15.7222 19.4353C13.8099 20.1574 11.6927 20.1133 9.81214 19.3122C7.93157 18.5112 6.43285 17.0151 5.62857 15.1359C5.57359 15.0247 5.54215 14.9034 5.5362 14.7795C5.53024 14.6556 5.54991 14.5318 5.59397 14.4159C5.63804 14.2999 5.70554 14.1943 5.79227 14.1056C5.879 14.0169 5.98309 13.9471 6.09804 13.9005C6.20982 13.8491 6.33072 13.8205 6.45367 13.8163C6.57663 13.8121 6.69918 13.8325 6.81418 13.8762C6.92919 13.9199 7.03433 13.9861 7.1235 14.0708C7.21266 14.1556 7.28404 14.2573 7.33349 14.3699C7.62715 15.0698 8.04579 15.7103 8.56894 16.2602C9.43519 17.1169 10.5354 17.6984 11.7313 17.9314C12.9272 18.1644 14.1653 18.0386 15.2898 17.5698C15.4934 17.4962 15.7163 17.4962 15.9199 17.5698L19.6262 18.7064L18.4896 15C18.416 14.7964 18.416 14.5735 18.4896 14.3699C18.8099 13.6159 18.9738 12.8047 18.9714 11.9855C18.9744 11.1802 18.8175 10.3822 18.51 9.63789C18.2026 8.89354 17.7505 8.21757 17.18 7.64909C16.9301 7.33324 16.6531 7.03975 16.3523 6.77192C16.2443 6.70711 16.1506 6.62095 16.077 6.51872C16.0034 6.41648 15.9514 6.30031 15.9242 6.17731C15.8971 6.0543 15.8952 5.92705 15.9189 5.80332C15.9426 5.67959 15.9912 5.56199 16.0619 5.45769C16.1325 5.3534 16.2237 5.26461 16.3298 5.19674C16.4359 5.12888 16.5548 5.08337 16.6791 5.06299C16.8034 5.04261 16.9306 5.04779 17.0528 5.07822C17.1751 5.10865 17.2898 5.16368 17.3901 5.23996C17.832 5.52524 18.2457 5.85206 18.6255 6.21597C19.3521 6.94685 19.931 7.81096 20.3304 8.76099C20.7496 9.74526 20.9639 10.8045 20.9605 11.8743C20.9579 12.8225 20.7907 13.7631 20.4663 14.6541L22.0106 19.7442C22.0605 19.8852 22.0755 20.0362 22.0544 20.1843C22.0332 20.3324 21.9765 20.4732 21.8891 20.5946C21.8016 20.716 21.6861 20.8144 21.5524 20.8815C21.4187 20.9485 21.2707 20.9822 21.1211 20.9796H21.0841Z" fill="#72777D"/>
</svg>