<svg width="17" height="17" viewBox="0 0 17 17" fill="none" xmlns="http://www.w3.org/2000/svg">
<path d="M5.35369 12.8806C5.35369 12.9506 5.28369 13.0006 5.18369 13.0006C5.08369 13.0006 5.00369 13.0006 5.00369 12.8806C5.00369 12.7606 5.08369 12.7606 5.17369 12.7606C5.26369 12.7606 5.35369 12.8106 5.35369 12.8806ZM4.35369 12.7306C4.35369 12.8006 4.35369 12.8806 4.49369 12.9006C4.5295 12.9178 4.57067 12.9201 4.60816 12.907C4.64566 12.8939 4.67642 12.8664 4.69369 12.8306C4.69369 12.7606 4.69369 12.6906 4.55369 12.6606C4.41369 12.6306 4.37369 12.6606 4.35369 12.7306ZM5.77369 12.6806C5.68369 12.6806 5.62369 12.7606 5.63369 12.8406C5.64369 12.9206 5.72369 12.9506 5.82369 12.9306C5.92369 12.9106 5.97369 12.8406 5.96369 12.7706C5.95369 12.7006 5.87369 12.6706 5.77369 12.6806ZM7.90369 0.000628979C6.84905 -0.00929686 5.80328 0.193944 4.82913 0.598155C3.85498 1.00237 2.97253 1.59921 2.23473 2.35288C1.49694 3.10655 0.919012 4.00151 0.53563 4.98404C0.152248 5.96658 -0.0286843 7.01644 0.0036899 8.07063C-0.0242249 9.79753 0.487919 11.49 1.46859 12.9117C2.44926 14.3334 3.84948 15.4133 5.47369 16.0006C5.88369 16.0706 6.03369 15.8106 6.03369 15.6006C6.03369 15.3906 6.03369 14.2606 6.03369 13.6006C6.03369 13.6006 3.77369 14.1006 3.29369 12.6006C3.29369 12.6006 2.93369 11.6006 2.40369 11.3906C2.40369 11.3906 1.66369 10.8706 2.45369 10.8806C2.71244 10.9155 2.9594 11.0106 3.17475 11.1582C3.39009 11.3058 3.56783 11.5019 3.69369 11.7306C3.79832 11.9357 3.94376 12.1173 4.12108 12.2641C4.2984 12.411 4.50385 12.5201 4.72485 12.5847C4.94584 12.6493 5.1777 12.6681 5.40621 12.6399C5.63472 12.6117 5.85505 12.5371 6.05369 12.4206C6.09154 12.0031 6.27157 11.6113 6.56369 11.3106C4.76369 11.1006 2.94369 10.8406 2.94369 7.65063C2.92457 7.29026 2.98247 6.92996 3.11352 6.59372C3.24456 6.25747 3.44576 5.95302 3.70369 5.70063C3.46034 4.96861 3.48874 4.17343 3.78369 3.46063C4.46369 3.24063 6.01369 4.35063 6.01369 4.35063C7.33786 3.97716 8.73952 3.97716 10.0637 4.35063C10.0637 4.35063 11.6137 3.24063 12.2937 3.46063C12.595 4.17203 12.6235 4.96955 12.3737 5.70063C12.6407 5.94954 12.8526 6.25171 12.9955 6.58759C13.1385 6.92348 13.2094 7.28562 13.2037 7.65063C13.2037 10.8506 11.3037 11.1006 9.50369 11.3106C9.6846 11.5135 9.82225 11.7512 9.90821 12.0091C9.99418 12.267 10.0267 12.5397 10.0037 12.8106C10.0037 13.9306 10.0037 15.3106 10.0037 15.5806C10.003 15.6482 10.0187 15.7149 10.0493 15.775C10.0799 15.8352 10.1246 15.8872 10.1796 15.9264C10.2345 15.9657 10.2981 15.9911 10.365 16.0005C10.4319 16.01 10.5 16.0031 10.5637 15.9806C12.1849 15.3984 13.5823 14.3216 14.5584 12.9023C15.5345 11.483 16.0401 9.79284 16.0037 8.07063C16.0131 7.00571 15.8098 5.94963 15.4057 4.96432C15.0016 3.97901 14.4048 3.0843 13.6504 2.33266C12.8959 1.58102 11.999 0.987572 11.0122 0.587121C10.0254 0.18667 8.96857 -0.0127245 7.90369 0.000628979ZM3.14369 11.4106C3.14369 11.4106 3.14369 11.5206 3.14369 11.5806C3.15484 11.5918 3.16809 11.6007 3.18267 11.6067C3.19726 11.6128 3.2129 11.6159 3.22869 11.6159C3.24448 11.6159 3.26012 11.6128 3.27471 11.6067C3.28929 11.6007 3.30254 11.5918 3.31369 11.5806C3.31369 11.5806 3.31369 11.4706 3.31369 11.4006C3.31369 11.3306 3.18369 11.3706 3.14369 11.4106ZM2.79369 11.1406C2.79369 11.1406 2.79369 11.2406 2.86369 11.2706C2.87213 11.2811 2.88279 11.2895 2.8949 11.2953C2.90702 11.3011 2.92027 11.3041 2.93369 11.3041C2.94711 11.3041 2.96036 11.3011 2.97248 11.2953C2.98459 11.2895 2.99525 11.2811 3.00369 11.2706C3.00369 11.2706 3.00369 11.1706 2.93369 11.1406C2.86369 11.1106 2.81369 11.1106 2.79369 11.1406ZM3.79369 12.3206C3.79369 12.3206 3.79369 12.4606 3.79369 12.5306C3.79369 12.6006 3.96369 12.6106 4.00369 12.5306C4.04369 12.4506 4.00369 12.3906 4.00369 12.3206C4.00369 12.2506 3.87369 12.2706 3.83369 12.3206H3.79369ZM3.42369 11.8306C3.42369 11.8306 3.42369 11.9506 3.42369 12.0306C3.42369 12.1106 3.56369 12.1406 3.61369 12.1106C3.63902 12.0815 3.65296 12.0442 3.65296 12.0056C3.65296 11.967 3.63902 11.9297 3.61369 11.9006C3.56369 11.8206 3.48369 11.7906 3.42369 11.8306Z" fill="#0645AD"/>
</svg>
