<svg width="67" height="24" viewBox="0 0 67 24" fill="none" xmlns="http://www.w3.org/2000/svg">
<path d="M4.83398 12.5117H7.82812V16.666C7.37891 16.8184 6.91602 16.9316 6.43945 17.0059C5.9668 17.0801 5.4375 17.1172 4.85156 17.1172C3.96094 17.1172 3.20898 16.9395 2.5957 16.584C1.98633 16.2285 1.52344 15.7227 1.20703 15.0664C0.890625 14.4062 0.732422 13.623 0.732422 12.7168C0.732422 11.8301 0.90625 11.0566 1.25391 10.3965C1.60547 9.73633 2.11133 9.22461 2.77148 8.86133C3.43555 8.49414 4.23242 8.31055 5.16211 8.31055C5.63867 8.31055 6.08984 8.35547 6.51562 8.44531C6.94531 8.53125 7.34375 8.6543 7.71094 8.81445L7.33008 9.68164C7.01367 9.54492 6.66406 9.42773 6.28125 9.33008C5.90234 9.23242 5.50977 9.18359 5.10352 9.18359C4.4043 9.18359 3.80469 9.32812 3.30469 9.61719C2.80859 9.90625 2.42773 10.3145 2.16211 10.8418C1.90039 11.3691 1.76953 11.9941 1.76953 12.7168C1.76953 13.4316 1.88477 14.0547 2.11523 14.5859C2.3457 15.1133 2.70508 15.5234 3.19336 15.8164C3.68164 16.1094 4.31055 16.2559 5.08008 16.2559C5.4668 16.2559 5.79883 16.2344 6.07617 16.1914C6.35352 16.1445 6.60547 16.0898 6.83203 16.0273V13.4023H4.83398V12.5117ZM11.2085 10.5781V17H10.2359V10.5781H11.2085ZM10.7339 8.17578C10.8941 8.17578 11.0308 8.22852 11.1441 8.33398C11.2612 8.43555 11.3198 8.5957 11.3198 8.81445C11.3198 9.0293 11.2612 9.18945 11.1441 9.29492C11.0308 9.40039 10.8941 9.45312 10.7339 9.45312C10.5659 9.45312 10.4253 9.40039 10.312 9.29492C10.2027 9.18945 10.148 9.0293 10.148 8.81445C10.148 8.5957 10.2027 8.43555 10.312 8.33398C10.4253 8.22852 10.5659 8.17578 10.7339 8.17578ZM15.8252 16.3203C15.9854 16.3203 16.1495 16.3066 16.3174 16.2793C16.4854 16.252 16.6221 16.2188 16.7276 16.1797V16.9355C16.6143 16.9863 16.4561 17.0293 16.253 17.0645C16.0538 17.0996 15.8584 17.1172 15.667 17.1172C15.3272 17.1172 15.0186 17.0586 14.7413 16.9414C14.4639 16.8203 14.2413 16.6172 14.0733 16.332C13.9092 16.0469 13.8272 15.6523 13.8272 15.1484V11.3398H12.9131V10.8652L13.833 10.4844L14.2198 9.08984H14.8057V10.5781H16.6866V11.3398H14.8057V15.1191C14.8057 15.5215 14.8975 15.8223 15.0811 16.0215C15.2686 16.2207 15.5166 16.3203 15.8252 16.3203ZM25.147 17H24.1509V12.9629H19.6509V17H18.6548V8.43359H19.6509V12.084H24.1509V8.43359H25.147V17ZM33.1388 10.5781V17H32.3419L32.2013 16.0977H32.1485C32.0157 16.3203 31.8438 16.5078 31.6329 16.6602C31.422 16.8125 31.1837 16.9258 30.918 17C30.6563 17.0781 30.377 17.1172 30.0802 17.1172C29.5723 17.1172 29.1466 17.0352 28.8028 16.8711C28.4591 16.707 28.1993 16.4531 28.0235 16.1094C27.8516 15.7656 27.7657 15.3242 27.7657 14.7852V10.5781H28.7501V14.7148C28.7501 15.25 28.8712 15.6504 29.1134 15.916C29.3555 16.1777 29.7247 16.3086 30.2208 16.3086C30.6973 16.3086 31.0763 16.2188 31.3575 16.0391C31.6427 15.8594 31.8477 15.5957 31.9727 15.248C32.0977 14.8965 32.1602 14.4668 32.1602 13.959V10.5781H33.1388ZM36.648 7.88281V10.1621C36.648 10.4238 36.6402 10.6777 36.6246 10.9238C36.6129 11.1699 36.6031 11.3613 36.5953 11.498H36.648C36.8238 11.209 37.0777 10.9648 37.4098 10.7656C37.7418 10.5664 38.1656 10.4668 38.6813 10.4668C39.4859 10.4668 40.1266 10.7461 40.6031 11.3047C41.0836 11.8594 41.3238 12.6855 41.3238 13.7832C41.3238 14.5059 41.2145 15.1152 40.9957 15.6113C40.777 16.1074 40.4684 16.4824 40.0699 16.7363C39.6715 16.9902 39.2008 17.1172 38.6578 17.1172C38.15 17.1172 37.732 17.0234 37.4039 16.8359C37.0797 16.6445 36.8297 16.4121 36.6539 16.1387H36.5777L36.3785 17H35.6754V7.88281H36.648ZM38.523 11.2812C38.0582 11.2812 37.6891 11.373 37.4156 11.5566C37.1422 11.7363 36.9449 12.0098 36.8238 12.377C36.7066 12.7402 36.648 13.2012 36.648 13.7598V13.8125C36.648 14.6211 36.7828 15.2402 37.0523 15.6699C37.3219 16.0957 37.8121 16.3086 38.523 16.3086C39.1207 16.3086 39.568 16.0898 39.8648 15.6523C40.1656 15.2148 40.316 14.5898 40.316 13.7773C40.316 12.9492 40.1676 12.3262 39.8707 11.9082C39.5777 11.4902 39.1285 11.2812 38.523 11.2812Z" fill="#0645AD"/>
<path d="M55.3537 16.8806C55.3537 16.9506 55.2837 17.0006 55.1837 17.0006C55.0837 17.0006 55.0037 17.0006 55.0037 16.8806C55.0037 16.7606 55.0837 16.7606 55.1737 16.7606C55.2637 16.7606 55.3537 16.8106 55.3537 16.8806ZM54.3537 16.7306C54.3537 16.8006 54.3537 16.8806 54.4937 16.9006C54.5295 16.9178 54.5707 16.9201 54.6082 16.907C54.6457 16.8939 54.6764 16.8664 54.6937 16.8306C54.6937 16.7606 54.6937 16.6906 54.5537 16.6606C54.4137 16.6306 54.3737 16.6606 54.3537 16.7306ZM55.7737 16.6806C55.6837 16.6806 55.6237 16.7606 55.6337 16.8406C55.6437 16.9206 55.7237 16.9506 55.8237 16.9306C55.9237 16.9106 55.9737 16.8406 55.9637 16.7706C55.9537 16.7006 55.8737 16.6706 55.7737 16.6806ZM57.9037 4.00063C56.8491 3.9907 55.8033 4.19394 54.8291 4.59815C53.855 5.00237 52.9725 5.59921 52.2347 6.35288C51.4969 7.10655 50.919 8.00151 50.5356 8.98404C50.1522 9.96658 49.9713 11.0164 50.0037 12.0706C49.9758 13.7975 50.4879 15.49 51.4686 16.9117C52.4493 18.3334 53.8495 19.4133 55.4737 20.0006C55.8837 20.0706 56.0337 19.8106 56.0337 19.6006C56.0337 19.3906 56.0337 18.2606 56.0337 17.6006C56.0337 17.6006 53.7737 18.1006 53.2937 16.6006C53.2937 16.6006 52.9337 15.6006 52.4037 15.3906C52.4037 15.3906 51.6637 14.8706 52.4537 14.8806C52.7124 14.9155 52.9594 15.0106 53.1747 15.1582C53.3901 15.3058 53.5678 15.5019 53.6937 15.7306C53.7983 15.9357 53.9438 16.1173 54.1211 16.2641C54.2984 16.411 54.5039 16.5201 54.7248 16.5847C54.9458 16.6493 55.1777 16.6681 55.4062 16.6399C55.6347 16.6117 55.8551 16.5371 56.0537 16.4206C56.0915 16.0031 56.2716 15.6113 56.5637 15.3106C54.7637 15.1006 52.9437 14.8406 52.9437 11.6506C52.9246 11.2903 52.9825 10.93 53.1135 10.5937C53.2446 10.2575 53.4458 9.95302 53.7037 9.70063C53.4603 8.96861 53.4887 8.17343 53.7837 7.46063C54.4637 7.24063 56.0137 8.35063 56.0137 8.35063C57.3379 7.97716 58.7395 7.97716 60.0637 8.35063C60.0637 8.35063 61.6137 7.24063 62.2937 7.46063C62.595 8.17203 62.6235 8.96955 62.3737 9.70063C62.6407 9.94954 62.8526 10.2517 62.9955 10.5876C63.1385 10.9235 63.2094 11.2856 63.2037 11.6506C63.2037 14.8506 61.3037 15.1006 59.5037 15.3106C59.6846 15.5135 59.8222 15.7512 59.9082 16.0091C59.9942 16.267 60.0267 16.5397 60.0037 16.8106C60.0037 17.9306 60.0037 19.3106 60.0037 19.5806C60.003 19.6482 60.0187 19.7149 60.0493 19.775C60.0799 19.8352 60.1246 19.8872 60.1796 19.9264C60.2345 19.9657 60.2981 19.9911 60.365 20.0005C60.4319 20.01 60.5 20.0031 60.5637 19.9806C62.1849 19.3984 63.5823 18.3216 64.5584 16.9023C65.5345 15.483 66.0401 13.7928 66.0037 12.0706C66.0131 11.0057 65.8098 9.94963 65.4057 8.96432C65.0016 7.97901 64.4048 7.0843 63.6504 6.33266C62.8959 5.58102 61.999 4.98757 61.0122 4.58712C60.0254 4.18667 58.9686 3.98728 57.9037 4.00063ZM53.1437 15.4106C53.1437 15.4106 53.1437 15.5206 53.1437 15.5806C53.1548 15.5918 53.1681 15.6007 53.1827 15.6067C53.1973 15.6128 53.2129 15.6159 53.2287 15.6159C53.2445 15.6159 53.2601 15.6128 53.2747 15.6067C53.2893 15.6007 53.3025 15.5918 53.3137 15.5806C53.3137 15.5806 53.3137 15.4706 53.3137 15.4006C53.3137 15.3306 53.1837 15.3706 53.1437 15.4106ZM52.7937 15.1406C52.7937 15.1406 52.7937 15.2406 52.8637 15.2706C52.8721 15.2811 52.8828 15.2895 52.8949 15.2953C52.907 15.3011 52.9203 15.3041 52.9337 15.3041C52.9471 15.3041 52.9604 15.3011 52.9725 15.2953C52.9846 15.2895 52.9953 15.2811 53.0037 15.2706C53.0037 15.2706 53.0037 15.1706 52.9337 15.1406C52.8637 15.1106 52.8137 15.1106 52.7937 15.1406ZM53.7937 16.3206C53.7937 16.3206 53.7937 16.4606 53.7937 16.5306C53.7937 16.6006 53.9637 16.6106 54.0037 16.5306C54.0437 16.4506 54.0037 16.3906 54.0037 16.3206C54.0037 16.2506 53.8737 16.2706 53.8337 16.3206H53.7937ZM53.4237 15.8306C53.4237 15.8306 53.4237 15.9506 53.4237 16.0306C53.4237 16.1106 53.5637 16.1406 53.6137 16.1106C53.639 16.0815 53.653 16.0442 53.653 16.0056C53.653 15.967 53.639 15.9297 53.6137 15.9006C53.5637 15.8206 53.4837 15.7906 53.4237 15.8306Z" fill="#0645AD"/>
</svg>
