<svg width="24" height="24" viewBox="0 0 24 24" fill="none" xmlns="http://www.w3.org/2000/svg">
<path d="M12.0001 18.3333C11.736 18.3298 11.4836 18.2234 11.2968 18.0366C11.11 17.8498 11.0036 17.5974 11.0001 17.3333V10.6666C11.0001 10.4014 11.1055 10.1471 11.293 9.95952C11.4806 9.77198 11.7349 9.66663 12.0001 9.66663C12.2653 9.66663 12.5197 9.77198 12.7072 9.95952C12.8948 10.1471 13.0001 10.4014 13.0001 10.6666V17.3333C12.9967 17.5974 12.8902 17.8498 12.7034 18.0366C12.5166 18.2234 12.2643 18.3298 12.0001 18.3333Z" fill="#0645AD"/>
<path d="M12.0001 8.33329C11.736 8.32984 11.4836 8.22337 11.2968 8.03658C11.11 7.84979 11.0036 7.59743 11.0001 7.33329V6.66663C11.0001 6.40141 11.1055 6.14706 11.293 5.95952C11.4806 5.77198 11.7349 5.66663 12.0001 5.66663C12.2653 5.66663 12.5197 5.77198 12.7072 5.95952C12.8948 6.14706 13.0001 6.40141 13.0001 6.66663V7.33329C12.9967 7.59743 12.8902 7.84979 12.7034 8.03658C12.5166 8.22337 12.2643 8.32984 12.0001 8.33329Z" fill="#0645AD"/>
<path d="M12 24C9.62663 24 7.30655 23.2962 5.33316 21.9776C3.35977 20.6591 1.8217 18.7849 0.913451 16.5922C0.00519935 14.3995 -0.232441 11.9867 0.230582 9.65892C0.693605 7.33115 1.83649 5.19295 3.51472 3.51472C5.19295 1.83649 7.33115 0.693605 9.65892 0.230582C11.9867 -0.232441 14.3995 0.00519935 16.5922 0.913451C18.7849 1.8217 20.6591 3.35977 21.9776 5.33316C23.2962 7.30655 24 9.62663 24 12C24 15.1826 22.7357 18.2348 20.4853 20.4853C18.2348 22.7357 15.1826 24 12 24ZM12 2.00001C10.0222 2.00001 8.08879 2.58649 6.4443 3.68531C4.79981 4.78412 3.51809 6.34591 2.76121 8.17317C2.00433 10.0004 1.8063 12.0111 2.19215 13.9509C2.578 15.8907 3.53041 17.6725 4.92894 19.0711C6.32746 20.4696 8.10929 21.422 10.0491 21.8079C11.9889 22.1937 13.9996 21.9957 15.8268 21.2388C17.6541 20.4819 19.2159 19.2002 20.3147 17.5557C21.4135 15.9112 22 13.9778 22 12C22 9.34784 20.9464 6.8043 19.0711 4.92894C17.1957 3.05357 14.6522 2.00001 12 2.00001Z" fill="#0645AD"/>
</svg>

