<svg width="41" height="25" viewBox="0 0 41 25" fill="none" xmlns="http://www.w3.org/2000/svg">
<path fill-rule="evenodd" clip-rule="evenodd" d="M0.444824 15.8243L2.42287 11.6485L7.0383 16.4837L14.0713 0H18.6868L8.13721 23.9563L0.444824 15.8243ZM12.9722 15.8244L14.9503 11.6485L19.5657 16.4837L26.5988 2.38911e-05H31.2142L20.6646 23.9563L12.9722 15.8244ZM30.6623 23.6687C31.6138 24.1711 32.747 24.4224 34.062 24.4224C35.2005 24.4224 36.1948 24.2513 37.0447 23.9092C37.9 23.5617 38.5869 23.0753 39.1054 22.4499C39.6239 21.8191 39.9526 21.0761 40.0916 20.2209H36.0505C35.9649 20.4507 35.8313 20.6485 35.6496 20.8142C35.4678 20.9746 35.2486 21.0975 34.9921 21.183C34.7408 21.2686 34.4629 21.3113 34.1582 21.3113C33.7199 21.3113 33.3457 21.2231 33.0356 21.0467C32.7256 20.8703 32.4877 20.6271 32.322 20.3171C32.1563 20.0071 32.0735 19.6543 32.0735 19.2587V19.0663H40.0916V18.0399C40.0916 17.0617 39.9473 16.1824 39.6586 15.402C39.37 14.6216 38.9584 13.9587 38.4238 13.4135C37.8893 12.8629 37.2452 12.4433 36.4915 12.1547C35.7378 11.866 34.8959 11.7217 33.9657 11.7217C32.6935 11.7217 31.5897 11.9863 30.6543 12.5155C29.7188 13.0447 28.9945 13.785 28.4814 14.7365C27.9682 15.688 27.7116 16.7998 27.7116 18.072C27.7116 19.3977 27.9655 20.5362 28.4733 21.4877C28.9865 22.4339 29.7162 23.1608 30.6623 23.6687ZM32.0735 16.6288C32.0842 16.2706 32.1777 15.9579 32.3541 15.6906C32.5359 15.4234 32.7764 15.2149 33.0757 15.0652C33.3751 14.9102 33.7038 14.8327 34.062 14.8327C34.4308 14.8327 34.7595 14.9102 35.0482 15.0652C35.3422 15.2149 35.5747 15.426 35.7458 15.6987C35.9222 15.9659 36.013 16.276 36.0184 16.6288H32.0735Z" fill="url(#paint0_linear_183_1736)"/>
<defs>
<linearGradient id="paint0_linear_183_1736" x1="0.444825" y1="12.3044" x2="40.0916" y2="12.3044" gradientUnits="userSpaceOnUse">
<stop offset="0.0364583" stop-color="#0645AD"/>
<stop offset="0.213542" stop-color="#FD9F12"/>
<stop offset="0.416667" stop-color="#FC4646"/>
<stop offset="0.651042" stop-color="#B219F0"/>
<stop offset="0.791667" stop-color="#24CA7A"/>
<stop offset="0.911458" stop-color="#1D6C3D"/>
<stop offset="1" stop-color="#0645AD"/>
</linearGradient>
</defs>
</svg>
