<svg width="22" height="22" viewBox="0 0 22 22" fill="none" xmlns="http://www.w3.org/2000/svg">
<path fill-rule="evenodd" clip-rule="evenodd" d="M9.15158 4.34297C9.15158 4.30578 9.16865 4.26859 9.20278 4.2314C9.23351 4.19421 9.27442 4.19421 9.31879 4.19421C10.5033 4.19421 17.6547 4.19421 18.8392 4.19421C18.9314 4.19421 19.0065 4.26859 19.0065 4.34297C19.0065 5.86777 19.0065 16.1322 19.0065 17.657C19.0065 17.6942 18.9894 17.7314 18.9587 17.7686C18.9279 17.8058 18.8836 17.8058 18.8392 17.8058C17.6547 17.8058 10.5033 17.8058 9.31879 17.8058C9.22663 17.8058 9.15158 17.7314 9.15158 17.657C9.15158 17.1364 9.15158 15.7975 9.15158 15.3512C9.15158 15.2769 9.09697 15.2397 9.03211 15.2397C8.6771 15.2397 7.63594 15.2397 7.28093 15.2397C7.21607 15.2397 7.16146 15.2769 7.16146 15.3512L7.16146 18.6983C7.16146 19.0331 7.28433 19.3678 7.50621 19.6281C7.72468 19.8512 8.0251 20 8.33573 20C9.70115 20 18.4569 20 19.8223 20C20.1364 20 20.4334 19.8512 20.6552 19.6281C20.8737 19.3678 21 19.0331 21 18.6983C21 17.0248 21 4.97521 21 3.30165C21 2.96694 20.8737 2.63223 20.6552 2.3719C20.4334 2.14876 20.1364 2 19.8223 2C18.4569 2 9.70115 2 8.33573 2C8.0251 2 7.72468 2.14876 7.50621 2.3719C7.28433 2.63223 7.16146 2.96694 7.16146 3.30165C7.16146 3.30165 7.16146 6.01653 7.16146 6.64876C7.16146 6.68595 7.17511 6.72314 7.19559 6.72314C7.21949 6.76033 7.25021 6.76033 7.28093 6.76033C7.63594 6.76033 8.6771 6.76033 9.03211 6.76033C9.06283 6.76033 9.09355 6.76033 9.11745 6.72314C9.13793 6.72314 9.15158 6.68595 9.15158 6.64876C9.15158 6.20248 9.15158 4.86364 9.15158 4.34297ZM1 11C1 10.9628 1.01365 10.9256 1.03414 10.8884C1.60078 10.2934 4.78904 6.79752 4.78904 6.79752C5.17818 6.38843 5.80972 6.38843 6.19886 6.79752C6.54363 7.20661 6.58113 7.76446 6.31487 8.21074L6.2978 8.21074L6.2944 8.24793C6.26368 8.28512 6.233 8.32231 6.19886 8.3595L4.90511 9.77273C4.88122 9.77273 4.87439 9.80992 4.88805 9.84711C4.9017 9.8843 4.93238 9.92149 4.96652 9.92149C6.05203 9.92149 10.9061 9.92149 10.9061 9.92149C11.4557 9.92149 11.9029 10.405 11.9029 11C11.9029 11.595 11.4591 12.0785 10.9096 12.0785C10.9096 12.0785 6.06228 12.0785 4.98018 12.0785C4.94605 12.0785 4.9119 12.1157 4.89825 12.1529C4.88459 12.1901 4.89489 12.2273 4.91878 12.2645L6.19886 13.6405C6.233 13.6777 6.26368 13.7149 6.2944 13.7521L6.31147 13.7893L6.31487 13.7893C6.58113 14.2355 6.54363 14.7934 6.19886 15.1653C5.80972 15.6116 5.17818 15.6116 4.78904 15.1653C4.78904 15.1653 1.60078 11.7066 1.03414 11.0744C1.01365 11.0744 1 11.0372 1 11Z" fill="#72777D"/>
</svg>
