<svg width="23" height="23" viewBox="0 0 23 23" fill="none" xmlns="http://www.w3.org/2000/svg">
<path d="M16.771 13.7329C17.5281 13.7329 18.3331 13.8096 19.1668 13.9629V15.4004C18.5727 15.2471 17.7677 15.1704 16.771 15.1704C14.9502 15.1704 13.5222 15.4867 12.4585 16.1192V14.4996C13.5797 13.9917 15.0172 13.7329 16.771 13.7329ZM12.4585 11.9408C13.6947 11.4329 15.1322 11.1837 16.771 11.1837C17.5281 11.1837 18.3331 11.2508 19.1668 11.4042V12.8417C18.5727 12.6883 17.7677 12.6117 16.771 12.6117C14.9502 12.6117 13.5222 12.9375 12.4585 13.5604V11.9408ZM16.771 10.0625C14.9502 10.0625 13.5222 10.3692 12.4585 11.0208V9.43C13.6372 8.89333 15.0747 8.625 16.771 8.625C17.5281 8.625 18.3331 8.70167 19.1668 8.84542V10.3308C18.4577 10.1487 17.6431 10.0625 16.771 10.0625ZM20.1252 17.7292V6.70833C19.1285 6.39208 18.0072 6.22917 16.771 6.22917C14.8064 6.22917 13.0527 6.70833 11.5002 7.66667V18.6875C13.0527 17.7292 14.8064 17.25 16.771 17.25C17.9114 17.25 19.0327 17.4033 20.1252 17.7292ZM16.771 4.3125C19.0231 4.3125 20.7864 4.79167 22.0418 5.75V19.7033C22.0418 19.8183 21.9939 19.9333 21.8885 20.0387C21.7831 20.125 21.6681 20.2017 21.5627 20.2017C21.4572 20.2017 21.3806 20.1825 21.3231 20.1538C20.0964 19.4925 18.5727 19.1667 16.771 19.1667C14.8064 19.1667 13.0527 19.6458 11.5002 20.6042C10.216 19.6458 8.46225 19.1667 6.22933 19.1667C4.6385 19.1667 3.11475 19.5117 1.67725 20.1921C1.6485 20.2017 1.61016 20.2017 1.56225 20.2208C1.52391 20.2304 1.48558 20.24 1.43766 20.24C1.33225 20.24 1.21725 20.2017 1.11183 20.125C1.00641 20.0196 0.958496 19.9142 0.958496 19.7896V5.75C2.24266 4.79167 4.006 4.3125 6.22933 4.3125C8.46225 4.3125 10.216 4.79167 11.5002 5.75C12.7843 4.79167 14.5381 4.3125 16.771 4.3125Z" fill="#72777D"/>
</svg>
